<svg xmlns="http://www.w3.org/2000/svg" viewBox="0 0 32 32"><title>Artboard-38</title><g id="Globe"><path d="M7,14a9,9,0,1,0,9-9A8.9955,8.9955,0,0,0,7,14Zm4.8-2.02a1.0415,1.0415,0,0,0,.65-.09l3.35-1.67,1.49,1.49A1.0243,1.0243,0,0,0,18,12a1.0092,1.0092,0,0,0,.5-.13l3.25-1.86a6.8989,6.8989,0,0,1,1.12,2.62l-2.99.38a1.085,1.085,0,0,0-.59.28l-2,2a1.0317,1.0317,0,0,0-.28.87.9961.9961,0,0,0,.54.73l1.66.83.8,2.01a6.8936,6.8936,0,0,1-3.78,1.26l-2.31-5.38a1.0118,1.0118,0,0,0-.7-.59L9,14.08V14a6.8424,6.8424,0,0,1,.46-2.49Z" style="fill:#262628"/><path d="M27.707,24.293l-3.22-3.22a1,1,0,0,0-1.4141,0A10.003,10.003,0,0,1,8.9268,6.9268a1.0046,1.0046,0,0,0,.2168-.3243c.2558-.6181.2558-.6181-3.4366-4.3095A1,1,0,0,0,4.293,3.707S5.8911,5.3047,6.8345,6.249A11.9973,11.9973,0,0,0,15,25.9493V28H13a1,1,0,0,0,0,2h6a1,1,0,0,0,0-2H17V25.9564a11.8909,11.8909,0,0,0,6.751-2.7914l2.542,2.542a1,1,0,0,0,1.414-1.414Z" style="fill:#262628"/></g></svg>
